<svg xmlns="http://www.w3.org/2000/svg" version="1.1" xmlns:xlink="http://www.w3.org/1999/xlink" xmlns:svgjs="http://svgjs.dev/svgjs" width="1500" height="534" viewBox="0 0 1500 534"><g transform="matrix(1,0,0,1,-0.9090909090909918,0.07245188680855108)"><svg viewBox="0 0 396 141" data-background-color="#000000" preserveAspectRatio="xMidYMid meet" height="534" width="1500" xmlns="http://www.w3.org/2000/svg" xmlns:xlink="http://www.w3.org/1999/xlink"><g id="tight-bounds" transform="matrix(1,0,0,1,0.2400000000000091,-0.019130554382030596)"><svg viewBox="0 0 395.52 141.03826110876403" height="141.03826110876403" width="395.52"><g><svg viewBox="0 0 685.4699621732113 244.43135999999998" height="141.03826110876403" width="395.52"><g transform="matrix(1,0,0,1,289.94996217321136,83.65301189887036)"><svg viewBox="0 0 395.52 77.12533620225926" height="77.12533620225926" width="395.52"><g id="textblocktransform"><svg viewBox="0 0 395.52 77.12533620225926" height="77.12533620225926" width="395.52" id="textblock"><g><svg viewBox="0 0 395.52 77.12533620225926" height="77.12533620225926" width="395.52"><g transform="matrix(1,0,0,1,0,0)"><svg width="395.52" viewBox="4.25 -35.75 185.89 36.25" height="77.12533620225926" data-palette-color="#fffcfc"><path d="M39.45 0L34.95 0 34.95-27.1 23.25-6.25 20.5-6.25 8.75-27.1 8.75 0 4.25 0 4.25-35.5 9-35.5 21.85-12.45 34.75-35.5 39.45-35.5 39.45 0ZM70.9-31.7L68.8-28.05Q68.2-28.75 67.2-29.4 66.2-30.05 64.95-30.58 63.7-31.1 62.22-31.43 60.75-31.75 59.15-31.75L59.15-31.75Q55.05-31.75 53.1-30.2 51.15-28.65 51.15-25.95L51.15-25.95Q51.15-24.05 52.15-22.95 53.15-21.85 55.22-21.15 57.3-20.45 60.5-19.7L60.5-19.7Q64.2-18.9 66.9-17.75 69.6-16.6 71.05-14.68 72.5-12.75 72.5-9.55L72.5-9.55Q72.5-7 71.52-5.13 70.55-3.25 68.8-2.02 67.05-0.8 64.7-0.23 62.35 0.35 59.6 0.35L59.6 0.35Q56.9 0.35 54.32-0.23 51.75-0.8 49.45-1.9 47.15-3 45.15-4.65L45.15-4.65 47.3-8.45Q48.1-7.6 49.37-6.78 50.65-5.95 52.27-5.25 53.9-4.55 55.8-4.13 57.7-3.7 59.7-3.7L59.7-3.7Q63.5-3.7 65.6-5.08 67.7-6.45 67.7-9.1L67.7-9.1Q67.7-11.1 66.52-12.3 65.35-13.5 63.05-14.3 60.75-15.1 57.45-15.9L57.45-15.9Q53.85-16.8 51.4-17.88 48.95-18.95 47.72-20.7 46.5-22.45 46.5-25.25L46.5-25.25Q46.5-28.65 48.15-31 49.8-33.35 52.7-34.55 55.6-35.75 59.25-35.75L59.25-35.75Q61.65-35.75 63.72-35.25 65.8-34.75 67.6-33.85 69.4-32.95 70.9-31.7L70.9-31.7ZM74.4-26.1L79.25-26.1 86.15-16.5 86.55-15.7 87-16.5 93.84-26.1 98.75-26.1 89.09-13 98.8 0 93.9 0 87-9.55 86.55-10.3 86.15-9.55 79.25 0 74.34 0 84.05-13 74.4-26.1ZM115.94 0L103.64 0 103.64-35.5 115.94-35.5Q121.64-35.5 125.47-33.13 129.29-30.75 131.19-26.73 133.09-22.7 133.09-17.8L133.09-17.8Q133.09-12.4 130.99-8.4 128.89-4.4 125.04-2.2 121.19 0 115.94 0L115.94 0ZM128.54-17.8L128.54-17.8Q128.54-21.8 127.07-24.9 125.59-28 122.79-29.75 119.99-31.5 115.94-31.5L115.94-31.5 108.14-31.5 108.14-4 115.94-4Q120.04-4 122.84-5.83 125.64-7.65 127.09-10.78 128.54-13.9 128.54-17.8ZM150.29 0.5L150.29 0.5Q147.34 0.5 144.92-0.58 142.49-1.65 140.72-3.53 138.94-5.4 137.97-7.85 136.99-10.3 136.99-13.05L136.99-13.05Q136.99-16.75 138.69-19.8 140.39-22.85 143.42-24.7 146.44-26.55 150.34-26.55L150.34-26.55Q154.29-26.55 157.22-24.68 160.14-22.8 161.77-19.78 163.39-16.75 163.39-13.25L163.39-13.25Q163.39-12.75 163.37-12.28 163.34-11.8 163.29-11.55L163.29-11.55 141.64-11.55Q141.84-9 143.07-7.03 144.29-5.05 146.24-3.93 148.19-2.8 150.44-2.8L150.44-2.8Q152.84-2.8 154.97-4 157.09-5.2 157.89-7.15L157.89-7.15 161.69-6.1Q160.84-4.2 159.17-2.7 157.49-1.2 155.22-0.35 152.94 0.5 150.29 0.5ZM141.49-14.6L141.49-14.6 159.29-14.6Q159.09-17.15 157.84-19.1 156.59-21.05 154.64-22.15 152.69-23.25 150.34-23.25L150.34-23.25Q148.04-23.25 146.09-22.15 144.14-21.05 142.92-19.1 141.69-17.15 141.49-14.6ZM179.89 0L175.09 0 164.84-26.1 169.44-26.1 177.64-4.2 185.84-26.1 190.14-26.1 179.89 0Z" opacity="1" transform="matrix(1,0,0,1,0,0)" fill="#fffcfc" class="wordmark-text-0" data-fill-palette-color="primary" id="text-0"></path></svg></g></svg></g></svg></g></svg></g><g><svg viewBox="0 0 244.43135999999998 244.43135999999998" height="244.43135999999998" width="244.43135999999998"><g><svg viewBox="0 0 244.43135999999998 244.43135999999998" height="244.43135999999998" width="244.43135999999998"><g transform="matrix(1,0,0,1,64.60265593644992,68.28899248958888)"><svg viewBox="0 0 115.22604812710014 107.85337502082221" height="107.85337502082221" width="115.22604812710014"><g><svg xmlns="http://www.w3.org/2000/svg" xmlns:xlink="http://www.w3.org/1999/xlink" version="1.1" x="0" y="0" viewBox="1.9434832299711795 3.863775423713763 60.116761333598774 56.270224576286246" enable-background="new 0 0 64 64" xml:space="preserve" height="107.85337502082221" width="115.22604812710014" class="icon-cg-0" data-fill-palette-color="accent" id="cg-0"><g fill="#fc5e01" data-fill-palette-color="accent"><path fill="#fc5e01" d="M60.966 27.477c-3.619-1.283-6.286-3.649-8.157-7.23-1.901-3.645-2.421-6.9-1.642-10.249 0.207-0.902-0.068-1.545-0.859-2.028-0.66-0.402-1.325-0.8-1.985-1.198L47.932 6.54c-1.003-0.601-2.138-1.278-3.217-1.943-0.804-0.504-1.558-0.301-1.926-0.097-0.165 0.093-0.343 0.212-0.512 0.351l-0.182 0.144c-0.631 0.504-1.342 1.071-2.091 1.486-0.313 0.174-0.622 0.313-0.931 0.423-2.794 0.982-5.41 1.405-7.772 1.266-3.255-0.195-6.113-1.422-8.737-3.751-0.859-0.766-1.613-0.627-2.29-0.254-1.833 1.067-3.729 2.117-5.677 3.145-0.834 0.461-1.105 1.05-0.944 2.04 0.999 5.931-1.177 10.939-6.655 15.311-0.254 0.203-0.533 0.389-0.855 0.563-0.745 0.415-1.609 0.72-2.371 0.986l-0.207 0.072c-0.22 0.076-0.411 0.161-0.576 0.254-0.648 0.356-0.94 0.872-0.944 1.672-0.008 1.278-0.034 2.599-0.055 3.768l-0.004 0.241c-0.017 0.847-0.034 1.689-0.042 2.523-0.017 0.931 0.385 1.507 1.27 1.816 3.243 1.113 5.723 3.281 7.802 6.828 2.045 3.484 2.633 7.002 1.808 10.74-0.178 0.779 0.089 1.372 0.813 1.816 2.159 1.321 3.971 2.426 5.821 3.509 0.199 0.119 0.508 0.275 0.876 0.296 0.271 0.017 0.525-0.042 0.762-0.174 0.165-0.093 0.334-0.224 0.5-0.389 0.605-0.622 1.338-1.173 2.176-1.638 2.472-1.367 5.897-1.981 9.283-1.647 3.471 0.343 6.477 1.626 8.246 3.522 0.292 0.313 0.707 0.677 1.312 0.711 0.034 0.004 0.072 0.004 0.106 0.004 0.356 0 0.732-0.119 1.194-0.373 1.003-0.571 1.994-1.122 2.65-1.486 0.66-0.364 1.655-0.91 2.705-1.482 1.308-0.72 1.249-1.647 1.058-2.375-0.665-2.51-0.157-5.736 1.393-8.856 1.52-3.061 3.827-5.609 6.324-6.993 0.842-0.466 1.697-0.796 2.561-0.982 0.377-0.085 0.914-0.271 1.177-0.864 0.102-0.224 0.152-0.478 0.165-0.809 0.068-2.303 0.093-4.623 0.114-6.786C62.071 28.286 61.711 27.744 60.966 27.477zM33.835 49.282v-7.374c2.07 0.055 4.098 0.207 6.058 0.444-0.445 1.49-0.995 2.883-1.638 4.136-0.415 0.813-0.864 1.541-1.333 2.184-0.957 1.308-2.007 2.244-3.086 2.752V49.282zM33.835 38.234V33.78h7.446c-0.076 1.71-0.254 3.374-0.538 4.961C38.521 38.466 36.214 38.293 33.835 38.234zM33.835 30.22v-4.453c2.379-0.059 4.686-0.233 6.909-0.508 0.284 1.587 0.461 3.251 0.538 4.961H33.835zM40.477 14.041c2.955 1.393 5.512 3.492 7.455 6.083-0.868 0.233-1.757 0.444-2.671 0.639-0.559 0.123-1.126 0.233-1.706 0.339-0.284-1.003-0.605-1.968-0.965-2.879C41.984 16.674 41.273 15.269 40.477 14.041zM33.835 12.576c1.079 0.508 2.129 1.444 3.086 2.756 0.47 0.639 0.919 1.367 1.333 2.18 0.643 1.253 1.194 2.642 1.638 4.136-1.96 0.237-3.988 0.389-6.058 0.445v-7.374V12.576zM22.719 33.78h7.446v4.453c-2.379 0.059-4.686 0.233-6.909 0.508C22.973 37.154 22.791 35.491 22.719 33.78zM22.719 30.22c0.072-1.71 0.254-3.374 0.538-4.961 2.222 0.275 4.53 0.449 6.909 0.508v4.453H22.719zM24.103 21.648c0.449-1.494 0.999-2.883 1.638-4.136 0.415-0.813 0.864-1.541 1.333-2.18 0.957-1.312 2.011-2.248 3.09-2.756v2.142 7.374C28.091 22.037 26.063 21.885 24.103 21.648zM23.523 14.041c-0.796 1.228-1.507 2.633-2.121 4.182-0.356 0.91-0.677 1.875-0.961 2.879-0.576-0.106-1.143-0.216-1.702-0.339-0.914-0.195-1.803-0.406-2.671-0.639C18.007 17.533 20.568 15.434 23.523 14.041zM16.538 24.057c1.003 0.241 2.032 0.457 3.086 0.652-0.305 1.748-0.504 3.594-0.58 5.512H14.71h-2.536c0.224-2.426 0.881-4.72 1.892-6.815C14.87 23.638 15.696 23.858 16.538 24.057zM14.71 33.78h4.335c0.076 1.918 0.275 3.763 0.58 5.512-1.054 0.195-2.083 0.411-3.086 0.652-0.842 0.199-1.668 0.419-2.472 0.652-1.012-2.095-1.668-4.39-1.892-6.815H14.71zM18.744 43.237c0.559-0.123 1.122-0.233 1.698-0.339 0.284 1.008 0.605 1.968 0.965 2.879 0.61 1.549 1.321 2.955 2.117 4.182-2.955-1.393-5.516-3.497-7.455-6.083C16.936 43.644 17.829 43.432 18.744 43.237zM30.165 51.424c-1.079-0.508-2.129-1.444-3.09-2.752-0.47-0.643-0.919-1.372-1.333-2.184-0.639-1.253-1.19-2.646-1.638-4.136 1.96-0.237 3.988-0.389 6.062-0.444v7.374V51.424zM40.477 49.96c0.796-1.228 1.507-2.633 2.112-4.182 0.36-0.91 0.682-1.871 0.965-2.879 0.576 0.106 1.143 0.216 1.702 0.339 0.919 0.195 1.808 0.406 2.675 0.639C45.989 46.463 43.432 48.567 40.477 49.96zM47.462 39.944c-1.003-0.241-2.032-0.457-3.086-0.652 0.305-1.748 0.5-3.594 0.58-5.512h4.335 2.536c-0.224 2.426-0.881 4.72-1.896 6.815C49.13 40.363 48.304 40.143 47.462 39.944zM49.291 30.22h-4.335c-0.08-1.918-0.275-3.763-0.58-5.512 1.054-0.195 2.083-0.411 3.086-0.652 0.842-0.199 1.668-0.419 2.468-0.652 1.016 2.095 1.672 4.39 1.896 6.815H49.291z" data-fill-palette-color="accent"></path></g></svg></g></svg></g><g id="text-0"><path d="M30.149 74.573l-1.002 2.682-16.149-6.03 9.82 11.614-0.612 1.64-15.04 2.364 16.149 6.03-1.001 2.682-21.153-7.899 1.058-2.833 16.592-2.53-10.862-12.814 1.047-2.805z" fill="#fc5e01" data-fill-palette-color="accent"></path><path d="M50.979 22.112l0.42 2.641c-0.381-0.074-0.823-0.084-1.328-0.032-0.504 0.052-1.033 0.16-1.587 0.322-0.549 0.158-1.11 0.382-1.682 0.672-0.577 0.285-1.127 0.639-1.651 1.063v0c-1.352 1.095-2.143 2.16-2.372 3.196-0.233 1.03 0.011 1.991 0.732 2.882v0c0.509 0.629 1.075 0.991 1.698 1.085 0.623 0.094 1.371-0.021 2.245-0.346 0.868-0.321 1.929-0.785 3.182-1.391v0c1.438-0.721 2.755-1.254 3.951-1.598 1.197-0.344 2.29-0.392 3.281-0.144 0.99 0.248 1.912 0.899 2.765 1.953v0c0.683 0.844 1.115 1.705 1.296 2.582 0.176 0.882 0.139 1.758-0.111 2.628-0.25 0.87-0.684 1.712-1.302 2.524-0.623 0.817-1.388 1.592-2.295 2.327v0c-0.891 0.721-1.838 1.331-2.839 1.83-1.002 0.499-2.027 0.873-3.075 1.122-1.057 0.248-2.134 0.37-3.232 0.364v0l-0.459-2.738c0.492 0.061 1.058 0.059 1.698-0.009 0.64-0.067 1.321-0.201 2.042-0.403 0.721-0.202 1.454-0.487 2.198-0.855 0.734-0.369 1.431-0.82 2.092-1.355v0c1.253-1.014 2.043-2.027 2.369-3.037 0.323-1.016 0.132-1.959-0.572-2.83v0c-0.535-0.66-1.155-1.03-1.861-1.109-0.71-0.084-1.549 0.048-2.516 0.396-0.977 0.348-2.113 0.83-3.411 1.447v0c-1.428 0.67-2.689 1.153-3.785 1.45-1.096 0.297-2.079 0.321-2.949 0.07-0.87-0.25-1.679-0.836-2.426-1.758v0c-0.908-1.122-1.401-2.289-1.48-3.501-0.083-1.217 0.192-2.411 0.823-3.582 0.636-1.165 1.557-2.236 2.762-3.212v0c0.792-0.641 1.594-1.156 2.407-1.544 0.823-0.388 1.649-0.675 2.479-0.862 0.834-0.181 1.665-0.263 2.493-0.248z" fill="#fc5e01" data-fill-palette-color="accent"></path><path d="M89.84 7.63l3.017-0.646 5.57 5.047 0.355 0.451 0.169-0.564 2.987-6.877 3.047-0.652-4.26 9.436 7.764 6.791-3.047 0.652-5.565-5.027-0.377-0.405-0.148 0.518-3.021 6.864-3.047 0.652 4.305-9.374z" fill="#fc5e01" data-fill-palette-color="accent"></path><path d="M149.641 23.827l-7.575-1.984 5.721-21.843 7.575 1.984c2.336 0.612 4.162 1.61 5.48 2.993 1.311 1.382 2.142 3.001 2.492 4.857 0.342 1.86 0.25 3.795-0.276 5.805v0c-0.579 2.212-1.515 4.027-2.806 5.445-1.29 1.412-2.843 2.365-4.66 2.858-1.815 0.487-3.798 0.448-5.951-0.115zM160.26 14.906v0c0.431-1.644 0.509-3.182 0.235-4.613-0.267-1.429-0.884-2.654-1.851-3.674-0.96-1.018-2.269-1.745-3.926-2.179v0l-4.805-1.258-4.431 16.92 4.805 1.259c1.683 0.441 3.196 0.44 4.539-0.004 1.345-0.45 2.482-1.239 3.413-2.369 0.929-1.123 1.602-2.484 2.021-4.082z" fill="#fc5e01" data-fill-palette-color="accent"></path><path d="M194.222 49.539v0c-0.911-0.862-1.583-1.81-2.017-2.843-0.434-1.042-0.652-2.112-0.653-3.21 0.003-1.093 0.21-2.16 0.621-3.201 0.415-1.037 1.024-1.979 1.826-2.826v0c1.076-1.136 2.321-1.926 3.735-2.371 1.414-0.444 2.856-0.51 4.324-0.197 1.473 0.308 2.812 1.032 4.017 2.173v0c1.215 1.15 1.999 2.44 2.353 3.871 0.354 1.431 0.338 2.851-0.048 4.259-0.381 1.403-1.082 2.644-2.103 3.722v0c-0.144 0.152-0.288 0.299-0.431 0.441-0.149 0.138-0.268 0.239-0.357 0.303v0l-9.998-9.466c-0.683 0.839-1.124 1.741-1.322 2.706-0.198 0.964-0.16 1.905 0.113 2.823 0.268 0.913 0.75 1.699 1.446 2.358v0c0.74 0.7 1.611 1.172 2.615 1.417 1.004 0.254 1.914 0.196 2.729-0.175v0l1.297 2.147c-0.816 0.342-1.699 0.5-2.649 0.473-0.96-0.026-1.912-0.241-2.859-0.644-0.946-0.403-1.826-0.99-2.639-1.76zM196.753 38.714v0l8.22 7.783c0.683-0.839 1.116-1.743 1.3-2.712 0.188-0.964 0.141-1.9-0.141-2.809-0.282-0.908-0.784-1.703-1.504-2.384v0c-0.71-0.672-1.526-1.125-2.449-1.357-0.917-0.228-1.85-0.219-2.797 0.026-0.947 0.245-1.824 0.73-2.629 1.453z" fill="#fc5e01" data-fill-palette-color="accent"></path><path d="M220.58 90.659l-1.033-2.875 13.417-11.754 0.992 2.761-11.349 9.613 14.875 0.203 0.924 2.57z" fill="#fc5e01" data-fill-palette-color="accent"></path><path d="M14.618 180.156l-1.01-2.7 16.259-6.084-15.134-2.341-0.617-1.648 9.869-11.729-16.259 6.084-1.01-2.701 21.299-7.97 1.067 2.852-10.947 12.889 16.729 2.564 1.053 2.814z" fill="#fc5e01" data-fill-palette-color="accent"></path><path d="M66.068 208.203l-2.515 0.972c-0.009-0.397-0.091-0.837-0.248-1.319-0.157-0.482-0.372-0.977-0.646-1.486-0.28-0.512-0.619-1.021-1.018-1.525-0.399-0.504-0.866-0.973-1.401-1.405v0c-1.359-1.098-2.573-1.65-3.643-1.656-1.061-0.007-1.953 0.437-2.678 1.334v0c-0.509 0.629-0.746 1.261-0.713 1.896 0.038 0.629 0.308 1.341 0.81 2.136 0.501 0.786 1.182 1.735 2.042 2.848v0c1.015 1.254 1.817 2.435 2.405 3.543 0.587 1.108 0.864 2.177 0.829 3.207-0.035 1.03-0.48 2.075-1.336 3.134v0c-0.687 0.85-1.443 1.453-2.269 1.809-0.83 0.361-1.701 0.511-2.614 0.45-0.903-0.062-1.824-0.312-2.762-0.75-0.934-0.443-1.858-1.033-2.77-1.771v0c-0.897-0.725-1.697-1.527-2.399-2.407-0.698-0.885-1.284-1.818-1.758-2.799-0.469-0.986-0.814-2.019-1.033-3.099v0l2.602-1.031c0.039 0.499 0.157 1.055 0.357 1.667 0.204 0.616 0.481 1.261 0.831 1.933 0.354 0.667 0.788 1.326 1.303 1.977 0.52 0.655 1.111 1.249 1.772 1.783v0c1.264 1.022 2.429 1.586 3.495 1.694 1.066 0.107 1.956-0.279 2.668-1.161v0c0.538-0.666 0.772-1.358 0.701-2.074-0.066-0.712-0.374-1.512-0.923-2.398-0.549-0.877-1.263-1.892-2.143-3.046v0c-0.954-1.266-1.694-2.405-2.219-3.419-0.53-1.018-0.762-1.981-0.695-2.89 0.061-0.913 0.467-1.834 1.218-2.762v0c0.911-1.128 1.958-1.86 3.141-2.196 1.177-0.341 2.409-0.32 3.696 0.061 1.287 0.381 2.537 1.062 3.749 2.041v0c0.797 0.644 1.472 1.328 2.023 2.052 0.556 0.718 1.012 1.468 1.368 2.25 0.356 0.782 0.614 1.585 0.773 2.407z" fill="#fc5e01" data-fill-palette-color="accent"></path><path d="M93.311 224.813l3.037 0.649 3.038 6.938 0.15 0.56 0.384-0.446 5.579-5.097 3.067 0.655-7.799 6.92 4.335 9.439-3.067-0.655-3.045-6.909-0.177-0.524-0.357 0.41-5.602 5.062-3.067-0.655 7.814-6.845z" fill="#fc5e01" data-fill-palette-color="accent"></path><path d="M153.861 241.026l-7.624 1.997-5.761-22 7.624-1.996c2.355-0.617 4.45-0.643 6.285-0.078 1.837 0.572 3.368 1.586 4.593 3.043 1.219 1.459 2.093 3.199 2.622 5.222v0c0.584 2.231 0.659 4.286 0.224 6.164-0.435 1.878-1.33 3.482-2.683 4.812-1.354 1.324-3.115 2.269-5.28 2.836zM158.782 227.952v0c-0.432-1.651-1.123-3.038-2.073-4.163-0.942-1.12-2.085-1.891-3.429-2.312-1.351-0.42-2.862-0.411-4.532 0.025v0l-4.834 1.266 4.464 17.048 4.834-1.266c1.696-0.444 3.023-1.196 3.98-2.255 0.958-1.053 1.568-2.304 1.83-3.752 0.262-1.449 0.182-2.979-0.24-4.591z" fill="#fc5e01" data-fill-palette-color="accent"></path><path d="M206.095 211.777v0c-0.916 0.867-1.906 1.488-2.971 1.864-1.07 0.381-2.155 0.539-3.255 0.476-1.105-0.059-2.166-0.327-3.183-0.804-1.022-0.472-1.937-1.134-2.744-1.986v0c-1.089-1.151-1.817-2.45-2.182-3.896-0.371-1.441-0.357-2.894 0.041-4.357 0.393-1.459 1.195-2.76 2.405-3.905v0c1.225-1.159 2.566-1.88 4.024-2.165 1.458-0.275 2.884-0.181 4.279 0.283 1.39 0.458 2.599 1.231 3.628 2.318v0c0.148 0.157 0.287 0.313 0.417 0.47 0.134 0.152 0.229 0.276 0.283 0.373v0l-10.074 9.533c0.81 0.728 1.696 1.218 2.658 1.468 0.957 0.255 1.903 0.27 2.839 0.043 0.936-0.217 1.755-0.658 2.455-1.321v0c0.745-0.705 1.269-1.554 1.573-2.547 0.309-0.998 0.299-1.917-0.031-2.756v0l2.237-1.183c0.292 0.838 0.398 1.736 0.319 2.692-0.079 0.957-0.346 1.901-0.801 2.833-0.455 0.932-1.094 1.787-1.917 2.567zM195.348 208.618v0l8.281-7.837c-0.81-0.728-1.694-1.211-2.651-1.447-0.962-0.241-1.906-0.248-2.833-0.021-0.927 0.237-1.756 0.701-2.486 1.392v0c-0.71 0.672-1.209 1.465-1.497 2.377-0.278 0.913-0.321 1.854-0.127 2.823 0.193 0.959 0.631 1.864 1.313 2.713z" fill="#fc5e01" data-fill-palette-color="accent"></path><path d="M236.237 163.77l-1.041 2.894-17.958 0.513 0.997-2.77 14.98-0.187-11.424-9.693 0.936-2.598z" fill="#fc5e01" data-fill-palette-color="accent"></path><path d="M1.202 124.37c0-4.798 3.889-8.687 8.687-8.687 4.798 0 8.687 3.889 8.687 8.687 0 4.798-3.889 8.687-8.687 8.687-4.798 0-8.687-3.889-8.687-8.687z" fill="#fc5e01" data-fill-palette-color="accent"></path><path d="M225.896 124.37c0-4.798 3.889-8.687 8.687-8.687 4.798 0 8.687 3.889 8.688 8.687 0 4.798-3.889 8.687-8.688 8.687-4.798 0-8.687-3.889-8.687-8.687z" fill="#fc5e01" data-fill-palette-color="accent"></path></g><g id="text-1"></g></svg></g></svg></g></svg></g><defs></defs></svg><rect width="395.52" height="141.03826110876403" fill="none" stroke="none" visibility="hidden"></rect></g></svg></g></svg>